<!DOCTYPE svg PUBLIC "-//W3C//DTD SVG 1.1//EN" "http://www.w3.org/Graphics/SVG/1.1/DTD/svg11.dtd"> <svg width="521px" height="521px" version="1.1" baseProfile="full" xmlns="http://www.w3.org/2000/svg" xmlns:xlink="http://www.w3.org/1999/xlink" xmlns:ev="http://www.w3.org/2001/xml-events"><polygon fill="#FC7500" stroke="#FC7500" points="217.26035928726196,227.8696396946907 201.5928897857666,216.4234983921051 185.1091661453247,174.4018300920725"></polygon><polygon fill="#FC7500" stroke="#FC7500" points="191.21486949920654,161.8020076341927 185.1091661453247,174.4018300920725 185.5821876525879,138.11211788654327"></polygon><polygon fill="#FC7500" stroke="#FC7500" points="189.35291862487793,196.27868947386742 185.1091661453247,174.4018300920725 191.21486949920654,161.8020076341927"></polygon><polygon fill="#034F5D" stroke="#034F5D" points="185.5821876525879,138.11211788654327 176.04361724853516,126.16196194291115 179.8784122467041,123.14026615023613"></polygon><polygon fill="#034F5D" stroke="#034F5D" points="179.8784122467041,123.14026615023613 214.23839378356934,121.56023940443993 185.5821876525879,138.11211788654327"></polygon><polygon fill="#034F5D" stroke="#034F5D" points="179.8784122467041,123.14026615023613 173.2968292236328,116.62209194898605 177.9784641265869,112.48183327913284"></polygon><polygon fill="#034F5D" stroke="#034F5D" points="179.8784122467041,123.14026615023613 177.9784641265869,112.48183327913284 214.23839378356934,121.56023940443993"></polygon><polygon fill="#034F5D" stroke="#034F5D" points="185.5821876525879,138.11211788654327 214.23839378356934,121.56023940443993 220.79065704345703,132.56929177045822"></polygon><polygon fill="#034F5D" stroke="#034F5D" points="171.34817218780518,107.04118740558624 175.50264358520508,103.47622233629227 177.9784641265869,112.48183327913284"></polygon><polygon fill="#034F5D" stroke="#034F5D" points="214.23839378356934,121.56023940443993 177.9784641265869,112.48183327913284 175.50264358520508,103.47622233629227"></polygon><polygon fill="#FC7500" stroke="#FC7500" points="185.5821876525879,138.11211788654327 220.79065704345703,132.56929177045822 191.21486949920654,161.8020076341927"></polygon><polygon fill="#F3C100" stroke="#F3C100" points="217.26035928726196,227.8696396946907 189.35291862487793,196.27868947386742 201.63367652893066,207.30928444862366"></polygon><polygon fill="#034F5D" stroke="#034F5D" points="175.50264358520508,103.47622233629227 159.41161251068115,71.24840903282166 197.06701183319092,82.88013225793839"></polygon><polygon fill="#034F5D" stroke="#034F5D" points="197.06701183319092,82.88013225793839 214.23839378356934,121.56023940443993 175.50264358520508,103.47622233629227"></polygon><polygon fill="#034F5D" stroke="#034F5D" points="220.79065704345703,132.56929177045822 214.23839378356934,121.56023940443993 197.06701183319092,82.88013225793839"></polygon><polygon fill="#C7144C" stroke="#C7144C" points="298.6433175802231,239.6379736661911 309.50262808799744,230.89308243989944 271.57503068447113,267.7451968193054"></polygon><polygon fill="#FC7500" stroke="#FC7500" points="191.21486949920654,161.8020076341927 201.63367652893066,207.30928444862366 189.35291862487793,196.27868947386742"></polygon><polygon fill="#034F5D" stroke="#034F5D" points="197.06701183319092,82.88013225793839 236.6176471710205,115.15351700782776 220.79065704345703,132.56929177045822"></polygon><polygon fill="#034F5D" stroke="#034F5D" points="197.06701183319092,82.88013225793839 159.41161251068115,71.24840903282166 153.75192832946777,43.391390919685364"></polygon><polygon fill="#FC7500" stroke="#FC7500" points="220.79065704345703,132.56929177045822 236.6176471710205,115.15351700782776 220.42391967773438,179.97953993082047"></polygon><polygon fill="#FC7500" stroke="#FC7500" points="220.42391967773438,179.97953993082047 191.21486949920654,161.8020076341927 220.79065704345703,132.56929177045822"></polygon><polygon fill="#01888C" stroke="#01888C" points="191.21486949920654,161.8020076341927 201.93029880523682,188.01331081986427 201.63367652893066,207.30928444862366"></polygon><polygon fill="#F3C100" stroke="#F3C100" points="201.93029880523682,188.01331081986427 191.21486949920654,161.8020076341927 220.42391967773438,179.97953993082047"></polygon><polygon fill="#2465E1" stroke="#2465E1" points="355.5891695022583,108.76887637376785 304.16131353378296,65.41258931159973 326.9890022277832,68.58086431026459"></polygon><polygon fill="#FC7500" stroke="#FC7500" points="201.63367652893066,207.30928444862366 201.93029880523682,188.01331081986427 215.1109914779663,204.3724547624588"></polygon><polygon fill="#034F5D" stroke="#034F5D" points="153.75192832946777,43.391390919685364 236.6176471710205,115.15351700782776 197.06701183319092,82.88013225793839"></polygon><polygon fill="#F19E02" stroke="#F19E02" points="215.1109914779663,204.3724547624588 201.93029880523682,188.01331081986427 213.38047313690186,185.7391482591629"></polygon><polygon fill="#FC7500" stroke="#FC7500" points="236.6176471710205,115.15351700782776 153.75192832946777,43.391390919685364 243.6357650756836,59.08290469646454"></polygon><polygon fill="#F3C100" stroke="#F3C100" points="220.42391967773438,179.97953993082047 213.38047313690186,185.7391482591629 201.93029880523682,188.01331081986427"></polygon><polygon fill="#FC7500" stroke="#FC7500" points="384.89030742645264,241.63948214054108 368.5666751861572,283.89817917346954 293.06269097328186,259.19940638542175"></polygon><polygon fill="#FC7500" stroke="#FC7500" points="179.30401611328125,251.97417080402374 201.63367652893066,207.30928444862366 215.1109914779663,204.3724547624588"></polygon><polygon fill="#FC7500" stroke="#FC7500" points="266.81918120384216,121.2955572605133 236.6176471710205,115.15351700782776 243.6357650756836,59.08290469646454"></polygon><polygon fill="#FC7500" stroke="#FC7500" points="243.6357650756836,59.08290469646454 304.16131353378296,65.41258931159973 266.81918120384216,121.2955572605133"></polygon><polygon fill="#FC7500" stroke="#FC7500" points="293.06269097328186,259.19940638542175 304.0664234161377,239.33113157749176 384.89030742645264,241.63948214054108"></polygon><polygon fill="#F3C100" stroke="#F3C100" points="293.06269097328186,259.19940638542175 269.22992277145386,233.482240319252 304.0664234161377,239.33113157749176"></polygon><polygon fill="#C7144C" stroke="#C7144C" points="217.2369875907898,281.58963084220886 293.06269097328186,259.19940638542175 271.57503068447113,267.7451968193054"></polygon><polygon fill="#F3C100" stroke="#F3C100" points="213.38047313690186,185.7391482591629 220.42391967773438,179.97953993082047 215.1109914779663,204.3724547624588"></polygon><polygon fill="#FC1960" stroke="#FC1960" points="206.92761039733887,279.1638813018799 293.06269097328186,259.19940638542175 217.2369875907898,281.58963084220886"></polygon><polygon fill="#FC7500" stroke="#FC7500" points="202.02423191070557,263.1110167503357 269.22992277145386,233.482240319252 293.06269097328186,259.19940638542175"></polygon><polygon fill="#FC1960" stroke="#FC1960" points="293.06269097328186,259.19940638542175 206.92761039733887,279.1638813018799 202.02423191070557,263.1110167503357"></polygon><polygon fill="#C7144C" stroke="#C7144C" points="271.57503068447113,267.7451968193054 214.49563694000244,288.5336117744446 217.2369875907898,281.58963084220886"></polygon><polygon fill="#FC7500" stroke="#FC7500" points="236.6176471710205,115.15351700782776 266.81918120384216,121.2955572605133 242.60546207427979,187.19450333714485"></polygon><polygon fill="#FC7500" stroke="#FC7500" points="242.60546207427979,187.19450333714485 220.42391967773438,179.97953993082047 236.6176471710205,115.15351700782776"></polygon><polygon fill="#FC7500" stroke="#FC7500" points="215.1109914779663,204.3724547624588 181.81902694702148,251.0032513141632 179.30401611328125,251.97417080402374"></polygon><polygon fill="#FC7500" stroke="#FC7500" points="214.35692596435547,199.51826697587967 220.42391967773438,179.97953993082047 242.60546207427979,187.19450333714485"></polygon><polygon fill="#2465E1" stroke="#2465E1" points="372.6251964569092,175.05460292100906 369.2946481704712,168.7978241443634 355.5891695022583,108.76887637376785"></polygon><polygon fill="#2465E1" stroke="#2465E1" points="355.5891695022583,108.76887637376785 377.0915594100952,163.78127748519182 373.00029373168945,155.63805690035224"></polygon><polygon fill="#FC7500" stroke="#FC7500" points="242.60546207427979,187.19450333714485 233.93279457092285,206.64755672216415 214.35692596435547,199.51826697587967"></polygon><polygon fill="#FC7500" stroke="#FC7500" points="242.60546207427979,187.19450333714485 266.81918120384216,121.2955572605133 311.7327733039856,154.41994274407625"></polygon><polygon fill="#C7144C" stroke="#C7144C" points="191.1344289779663,276.2666711807251 178.18218326568604,266.99713385105133 200.6490182876587,278.68708097934723"></polygon><polygon fill="#C7144C" stroke="#C7144C" points="200.6490182876587,278.68708097934723 214.49563694000244,288.5336117744446 191.1344289779663,276.2666711807251"></polygon><polygon fill="#F3C100" stroke="#F3C100" points="255.04625129699707,199.89965826272964 243.8819875717163,215.08854413032532 242.60546207427979,187.19450333714485"></polygon><polygon fill="#FC7500" stroke="#FC7500" points="214.35692596435547,199.51826697587967 233.93279457092285,206.64755672216415 198.71908950805664,259.21562337875366"></polygon><polygon fill="#FC7500" stroke="#FC7500" points="198.71908950805664,259.21562337875366 181.81902694702148,251.0032513141632 214.35692596435547,199.51826697587967"></polygon><polygon fill="#2465E1" stroke="#2465E1" points="243.8819875717163,215.08854413032532 233.93279457092285,206.64755672216415 242.60546207427979,187.19450333714485"></polygon><polygon fill="#034F5D" stroke="#034F5D" points="361.30959606170654,185.03019630908966 311.7327733039856,154.41994274407625 338.53202390670776,149.3022429421544"></polygon><polygon fill="#FC7500" stroke="#FC7500" points="269.22992277145386,233.482240319252 243.8819875717163,215.08854413032532 272.43708515167236,212.780268907547"></polygon><polygon fill="#F19E02" stroke="#F19E02" points="243.8819875717163,215.08854413032532 255.04625129699707,199.89965826272964 272.43708515167236,212.780268907547"></polygon><polygon fill="#FC7500" stroke="#FC7500" points="361.30959606170654,185.03019630908966 298.7535799741745,195.01914140582085 311.7327733039856,154.41994274407625"></polygon><polygon fill="#FC7500" stroke="#FC7500" points="311.7327733039856,154.41994274407625 298.7535799741745,195.01914140582085 242.60546207427979,187.19450333714485"></polygon><polygon fill="#F3C100" stroke="#F3C100" points="272.43708515167236,212.780268907547 255.04625129699707,199.89965826272964 242.60546207427979,187.19450333714485"></polygon><polygon fill="#FC7500" stroke="#FC7500" points="298.7535799741745,195.01914140582085 361.30959606170654,185.03019630908966 384.89030742645264,241.63948214054108"></polygon><polygon fill="#FC7500" stroke="#FC7500" points="298.7535799741745,195.01914140582085 384.89030742645264,241.63948214054108 304.0664234161377,239.33113157749176"></polygon><polygon fill="#034F5D" stroke="#034F5D" points="311.7327733039856,154.41994274407625 266.81918120384216,121.2955572605133 320.23755383491516,102.35549342632294"></polygon><polygon fill="#034F5D" stroke="#034F5D" points="320.23755383491516,102.35549342632294 338.53202390670776,149.3022429421544 311.7327733039856,154.41994274407625"></polygon><polygon fill="#01888C" stroke="#01888C" points="233.93279457092285,206.64755672216415 243.8819875717163,215.08854413032532 198.71908950805664,259.21562337875366"></polygon><polygon fill="#FC7500" stroke="#FC7500" points="243.8819875717163,215.08854413032532 269.22992277145386,233.482240319252 202.02423191070557,263.1110167503357"></polygon><polygon fill="#FC7500" stroke="#FC7500" points="202.02423191070557,263.1110167503357 198.71908950805664,259.21562337875366 243.8819875717163,215.08854413032532"></polygon><polygon fill="#034F5D" stroke="#034F5D" points="369.2946481704712,168.7978241443634 361.30959606170654,185.03019630908966 338.53202390670776,149.3022429421544"></polygon><polygon fill="#F3C100" stroke="#F3C100" points="242.60546207427979,187.19450333714485 298.7535799741745,195.01914140582085 272.43708515167236,212.780268907547"></polygon><polygon fill="#FC7500" stroke="#FC7500" points="304.0664234161377,239.33113157749176 269.22992277145386,233.482240319252 298.7535799741745,195.01914140582085"></polygon><polygon fill="#01888C" stroke="#01888C" points="298.7535799741745,195.01914140582085 269.22992277145386,233.482240319252 272.43708515167236,212.780268907547"></polygon><polygon fill="#034F5D" stroke="#034F5D" points="369.2946481704712,168.7978241443634 338.53202390670776,149.3022429421544 373.00029373168945,155.63805690035224"></polygon><polygon fill="#034F5D" stroke="#034F5D" points="377.08263301849365,144.7660340666771 338.53202390670776,149.3022429421544 320.23755383491516,102.35549342632294"></polygon><polygon fill="#034F5D" stroke="#034F5D" points="338.53202390670776,149.3022429421544 377.08263301849365,144.7660340666771 373.00029373168945,155.63805690035224"></polygon><polygon fill="#C7144C" stroke="#C7144C" points="206.92761039733887,279.1638813018799 217.2369875907898,281.58963084220886 214.49563694000244,288.5336117744446"></polygon><polygon fill="#C7144C" stroke="#C7144C" points="214.49563694000244,288.5336117744446 200.6490182876587,278.68708097934723 206.92761039733887,279.1638813018799"></polygon><polygon fill="#034F5D" stroke="#034F5D" points="200.6490182876587,278.68708097934723 178.18218326568604,266.99713385105133 171.9757833480835,259.6279889345169"></polygon><polygon fill="#034F5D" stroke="#034F5D" points="179.30401611328125,251.97417080402374 181.81902694702148,251.0032513141632 173.39126873016357,258.1420433521271"></polygon><polygon fill="#034F5D" stroke="#034F5D" points="173.39126873016357,258.1420433521271 181.81902694702148,251.0032513141632 198.71908950805664,259.21562337875366"></polygon><polygon fill="#034F5D" stroke="#034F5D" points="320.23755383491516,102.35549342632294 266.81918120384216,121.2955572605133 350.7645106315613,61.47607898712158"></polygon><polygon fill="#2465E1" stroke="#2465E1" points="350.7645106315613,61.47607898712158 266.81918120384216,121.2955572605133 304.16131353378296,65.41258931159973"></polygon><polygon fill="#034F5D" stroke="#034F5D" points="361.30959606170654,185.03019630908966 369.2946481704712,168.7978241443634 372.6251964569092,175.05460292100906"></polygon><polygon fill="#034F5D" stroke="#034F5D" points="202.02423191070557,263.1110167503357 206.92761039733887,279.1638813018799 200.6490182876587,278.68708097934723"></polygon><polygon fill="#034F5D" stroke="#034F5D" points="171.9757833480835,259.6279889345169 173.39126873016357,258.1420433521271 190.09271907806396,266.6245102882385"></polygon><polygon fill="#034F5D" stroke="#034F5D" points="190.09271907806396,266.6245102882385 192.2715826034546,270.0236655473709 171.9757833480835,259.6279889345169"></polygon><polygon fill="#034F5D" stroke="#034F5D" points="171.9757833480835,259.6279889345169 192.2715826034546,270.0236655473709 200.6490182876587,278.68708097934723"></polygon><polygon fill="#034F5D" stroke="#034F5D" points="198.71908950805664,259.21562337875366 190.09271907806396,266.6245102882385 173.39126873016357,258.1420433521271"></polygon><polygon fill="#034F5D" stroke="#034F5D" points="200.6490182876587,278.68708097934723 192.2715826034546,270.0236655473709 202.02423191070557,263.1110167503357"></polygon><polygon fill="#034F5D" stroke="#034F5D" points="190.09271907806396,266.6245102882385 198.71908950805664,259.21562337875366 202.02423191070557,263.1110167503357"></polygon><polygon fill="#034F5D" stroke="#034F5D" points="202.02423191070557,263.1110167503357 192.2715826034546,270.0236655473709 190.09271907806396,266.6245102882385"></polygon><polygon fill="#034F5D" stroke="#034F5D" points="369.2946481704712,168.7978241443634 373.00029373168945,155.63805690035224 377.0915594100952,163.78127748519182"></polygon><polygon fill="#034F5D" stroke="#034F5D" points="380.8199586868286,151.7621828392148 373.00029373168945,155.63805690035224 377.08263301849365,144.7660340666771"></polygon><polygon fill="#034F5D" stroke="#034F5D" points="320.23755383491516,102.35549342632294 378.95381927490234,103.45773100852966 377.08263301849365,144.7660340666771"></polygon><polygon fill="#034F5D" stroke="#034F5D" points="350.7645106315613,61.47607898712158 378.95381927490234,103.45773100852966 320.23755383491516,102.35549342632294"></polygon></svg>